<svg width="20" height="20" viewBox="0 0 20 20" fill="none" xmlns="http://www.w3.org/2000/svg">
<path fill-rule="evenodd" clip-rule="evenodd" d="M2.60399 0.267321C2.74769 -0.0890988 3.25228 -0.0891088 3.396 0.267301L3.9317 1.59576C4.01848 1.81098 4.18913 1.98162 4.40435 2.0684L5.73269 2.60399C6.08909 2.7477 6.08911 3.25227 5.73271 3.396L4.40431 3.9317C4.18911 4.01849 4.01849 4.18911 3.9317 4.40431L3.396 5.73271C3.25227 6.08911 2.7477 6.08909 2.60399 5.73269L2.0684 4.40435C1.98162 4.18913 1.81098 4.01848 1.59576 3.93169L0.267301 3.396C-0.0891088 3.25228 -0.0890987 2.74769 0.267321 2.60399L1.59571 2.06841C1.81096 1.98162 1.98162 1.81096 2.06841 1.59571L2.60399 0.267321ZM12.076 3.62375C12.4113 2.79211 13.5887 2.79207 13.924 3.6237L15.174 6.72343C15.3765 7.22562 15.7746 7.62377 16.2768 7.82626L19.3763 9.076C20.2079 9.4113 20.2079 10.5886 19.3763 10.924L16.2767 12.174C15.7746 12.3765 15.3765 12.7746 15.174 13.2767L13.924 16.3763C13.5886 17.2079 12.4113 17.2079 12.076 16.3763L10.8263 13.2768C10.6238 12.7746 10.2256 12.3765 9.7234 12.174L6.6237 10.924C5.79207 10.5887 5.79211 9.4113 6.62375 9.076L9.7233 7.82628C10.2256 7.62378 10.6238 7.22558 10.8263 6.72333L12.076 3.62375ZM3.396 14.2673C3.25228 13.9109 2.74769 13.9109 2.60399 14.2673L2.06841 15.5957C1.98162 15.811 1.81096 15.9816 1.59571 16.0684L0.267321 16.604C-0.0890987 16.7477 -0.0891088 17.2523 0.267301 17.396L1.59576 17.9317C1.81098 18.0185 1.98162 18.1891 2.0684 18.4044L2.60399 19.7327C2.7477 20.0891 3.25227 20.0891 3.396 19.7327L3.9317 18.4043C4.01849 18.1891 4.18911 18.0185 4.40431 17.9317L5.73271 17.396C6.08911 17.2523 6.08909 16.7477 5.73269 16.604L4.40435 16.0684C4.18913 15.9816 4.01848 15.811 3.9317 15.5958L3.396 14.2673Z" fill="url(#paint0_linear_26_115)"/>
<defs>
<linearGradient id="paint0_linear_26_115" x1="-38.5" y1="-8" x2="-34.6013" y2="26.1396" gradientUnits="userSpaceOnUse">
<stop offset="0.210856" stop-color="#47D1C4"/>
<stop offset="0.296475" stop-color="#85E1FF"/>
<stop offset="0.615132" stop-color="#867AFF"/>
<stop offset="1" stop-color="#E87EF1"/>
</linearGradient>
</defs>
</svg>
