<svg width="23" height="17" viewBox="0 0 23 17" fill="none" xmlns="http://www.w3.org/2000/svg">
<path fill-rule="evenodd" clip-rule="evenodd" d="M0 2.08333C0 0.932708 0.932708 0 2.08333 0H15.625C16.7756 0 17.7083 0.932708 17.7083 2.08333V3.66979L21.4881 2.15781C21.6462 2.09459 21.8173 2.07106 21.9866 2.0893C22.1558 2.10753 22.318 2.16697 22.459 2.26241C22.6 2.35784 22.7154 2.48638 22.7952 2.63675C22.875 2.78713 22.9167 2.95477 22.9167 3.125V13.5417C22.9166 13.7119 22.8749 13.8795 22.7951 14.0299C22.7153 14.1802 22.5999 14.3088 22.459 14.4042C22.318 14.4996 22.1558 14.5591 21.9866 14.5773C21.8173 14.5956 21.6462 14.5721 21.4881 14.5089L17.7083 12.9969V14.5833C17.7083 15.734 16.7756 16.6667 15.625 16.6667H2.08333C0.932708 16.6667 0 15.734 0 14.5833V2.08333ZM17.7083 10.7531L20.8333 12.0031V4.66354L17.7083 5.91354V10.7531ZM15.625 2.08333H2.08333V14.5833H15.625V2.08333Z" fill="#222428"/>
</svg>
