<svg width="6" height="20" viewBox="0 0 6 20" fill="none" xmlns="http://www.w3.org/2000/svg">
<path d="M3.00016 4C1.80351 4 0.833496 3.1046 0.833496 2C0.833496 0.8954 1.80351 0 3.00016 0C4.19681 0 5.16683 0.8954 5.16683 2C5.16683 3.1046 4.19681 4 3.00016 4ZM3.00016 12C1.80351 12 0.833496 11.1046 0.833496 10C0.833496 8.8954 1.80351 8 3.00016 8C4.19681 8 5.16683 8.8954 5.16683 10C5.16683 11.1046 4.19681 12 3.00016 12ZM3.00016 20C1.80351 20 0.833496 19.1046 0.833496 18C0.833496 16.8954 1.80351 16 3.00016 16C4.19681 16 5.16683 16.8954 5.16683 18C5.16683 19.1046 4.19681 20 3.00016 20Z" fill="#222428"/>
</svg>
